<svg id="artwork" xmlns="http://www.w3.org/2000/svg" viewBox="0 0 190 190"><defs><style>.cls-1{fill:#cad0d3;}</style></defs><polygon class="cls-1" points="57.55 53.65 57.55 53.65 68.17 43.13 57.55 53.65"/><rect class="cls-1" x="134.06" y="46.97" height="6.58" transform="translate(3.79 109.65) rotate(-45.06)"/><polygon class="cls-1" points="57.55 125.78 57.56 125.79 57.55 125.78 57.55 125.78"/><polygon class="cls-1" points="109.26 117.34 106.12 120.48 89.42 120.48 89.42 120.48 106.12 120.48 109.26 117.34"/><polygon class="cls-1" points="130.71 132.57 137.46 125.78 137.46 95.66 137.46 95.66 137.46 125.78 130.71 132.57"/><polygon class="cls-1" points="137.46 73.3 125.44 73.3 125.44 73.3 137.46 73.3 137.46 62.32 137.46 62.32 137.46 73.3"/><polygon class="cls-1" points="137.46 95.66 120.75 78.99 119.22 78.99 119.21 78.99 120.75 78.99 137.46 95.66"/><polygon class="cls-1" points="89.02 59.08 85.14 62.96 85.14 75.11 88.58 78.55 88.58 78.55 85.14 75.11 85.14 62.96 89.02 59.08 106.12 59.08 107.25 60.21 107.25 60.21 106.12 59.08 89.02 59.08"/><path class="cls-1" d="M138,52.59l-5.36-5.36L189.6,0H139.27L109.9,35.94H73.74L56.51,53.13v31.8L69.2,97.59l-8.29,8.15h-4.4v20.68l1.85,1.85L0,190l67.57-52.54,6.17,6.16h47.53l17.23-17.2V95.14L121.27,78h-.92l4-3.62H138.5V61.38l9.63-8.79Zm-29.11,53V116l-3.37,3.37H90.91l17.8-13.84Zm-15-3.49h11.59l.24.25L90,105.71Zm-4.45-24.4-3.26-3.26V63.6l3.5-3.48h15.8l.91.94Zm48-4.42H110V63l-.12-.12-2.63-2.63h0l-1.13-1.13H89L85.14,63V75.11l3.44,3.44h0L89,79h31.73l16.71,16.67h0v30.12l-6.75,6.79-10,10H74.39L57.56,125.79h0v-19H85.14v9.82L89,120.48h17.1l3.14-3.14.74-.74V105l-3.88-3.88H74.39L57.55,84.42V53.65h0L68.17,43.13,74.39,37h46.36l11,11h0l4.66,4.65h0l1.07,1.06v8.67h0Z"/><polygon class="cls-1" points="132.67 55.98 118.42 41.76 76.72 41.76 62.47 55.98 62.47 81.96 76.72 96.18 108.06 96.18 114.8 102.9 114.8 118.67 108.06 125.26 86.95 125.26 80.22 118.67 80.22 111.56 62.47 111.56 62.47 123.45 76.72 137.67 118.42 137.67 132.67 123.45 132.67 97.99 118.42 83.77 86.95 83.77 80.22 77.18 80.22 60.89 86.95 54.17 108.06 54.17 114.8 60.89 114.8 68.39 132.67 68.39 132.67 55.98"/></svg>