<svg id="artwork" xmlns="http://www.w3.org/2000/svg" width="410" height="110" viewBox="0 0 410 110"><defs><style>.cls-1{fill:#a1abb3;}.cls-2,.cls-3{fill:#fff;}.cls-3{opacity:0.2;}</style></defs><polygon class="cls-1" points="410 55.83 79.05 55.83 79.05 72.09 70.32 80.87 410 80.87 398.35 67.81 410 55.83"/><path d="M91.55,68.45a6.11,6.11,0,0,1,.36-2,5.59,5.59,0,0,1,1-1.82,5.41,5.41,0,0,1,1.7-1.31,5.05,5.05,0,0,1,2.3-.51,4.75,4.75,0,0,1,2.61.69,4.2,4.2,0,0,1,1.6,1.8l-.88.55a3.55,3.55,0,0,0-1.51-1.58,3.53,3.53,0,0,0-.94-.34,4.38,4.38,0,0,0-.94-.11,3.82,3.82,0,0,0-1.82.42,4.24,4.24,0,0,0-1.32,1.09A4.74,4.74,0,0,0,93,66.8a5.57,5.57,0,0,0-.28,1.71A5.1,5.1,0,0,0,93,70.33a5.19,5.19,0,0,0,.9,1.53,4.21,4.21,0,0,0,1.35,1.06,3.76,3.76,0,0,0,1.7.39,4.17,4.17,0,0,0,1-.12,3.9,3.9,0,0,0,1-.38,4.31,4.31,0,0,0,.88-.66,3.23,3.23,0,0,0,.67-1l.94.49a3.63,3.63,0,0,1-.78,1.13,5.21,5.21,0,0,1-1.1.83,5.86,5.86,0,0,1-1.3.51,5.2,5.2,0,0,1-1.34.18,4.58,4.58,0,0,1-2.15-.52A5.66,5.66,0,0,1,93,72.47a6.2,6.2,0,0,1-1.1-1.88A6.09,6.09,0,0,1,91.55,68.45Z"/><path d="M109.27,74.23V62.83h1.12v11.4Z"/><path d="M127.28,63.82h-4.06V74.23H122.1V63.82H118v-1h9.25Z"/><path d="M135,62.83,138.72,69l3.76-6.13h1.22L139.28,70v4.24h-1.12V70l-4.4-7.13Z"/><path d="M167.48,65a3.47,3.47,0,0,0-1.28-.88,4.59,4.59,0,0,0-1.83-.34,3.43,3.43,0,0,0-2.2.57,1.91,1.91,0,0,0-.69,1.55,1.76,1.76,0,0,0,.18.85,1.72,1.72,0,0,0,.57.57,4.22,4.22,0,0,0,1,.41c.4.12.88.24,1.42.36a16.32,16.32,0,0,1,1.65.43,4.62,4.62,0,0,1,1.24.6,2.45,2.45,0,0,1,.79.88,2.73,2.73,0,0,1,.27,1.28,2.94,2.94,0,0,1-.3,1.37,2.89,2.89,0,0,1-.85,1,3.75,3.75,0,0,1-1.3.57,7.2,7.2,0,0,1-1.66.19,6.78,6.78,0,0,1-4.58-1.66l.57-.91a4.61,4.61,0,0,0,.73.61,5,5,0,0,0,1,.5,5.33,5.33,0,0,0,1.11.34,6.31,6.31,0,0,0,1.25.12,3.91,3.91,0,0,0,2.13-.49,1.65,1.65,0,0,0,.77-1.49,1.75,1.75,0,0,0-.22-.89,1.85,1.85,0,0,0-.65-.62,4.55,4.55,0,0,0-1.08-.46c-.43-.13-.92-.26-1.49-.39s-1.13-.28-1.58-.43a4.49,4.49,0,0,1-1.14-.56,2.33,2.33,0,0,1-.7-.81,2.74,2.74,0,0,1-.23-1.17,3.16,3.16,0,0,1,.3-1.4,2.81,2.81,0,0,1,.84-1,4.31,4.31,0,0,1,1.29-.63,6,6,0,0,1,1.64-.21A5.26,5.26,0,0,1,168,64.06Z"/><path d="M175.74,68.45a6.11,6.11,0,0,1,.36-2,5.59,5.59,0,0,1,1.05-1.82,5.34,5.34,0,0,1,1.71-1.31,5,5,0,0,1,2.29-.51,4.75,4.75,0,0,1,2.61.69,4.14,4.14,0,0,1,1.6,1.8l-.88.55a3.37,3.37,0,0,0-.67-1,3.55,3.55,0,0,0-.84-.63,3.59,3.59,0,0,0-.93-.34,4.47,4.47,0,0,0-.95-.11,3.82,3.82,0,0,0-1.82.42A4.24,4.24,0,0,0,178,65.28a4.74,4.74,0,0,0-.81,1.52,5.56,5.56,0,0,0-.27,1.71,5.32,5.32,0,0,0,.32,1.82,5.19,5.19,0,0,0,.9,1.53,4.21,4.21,0,0,0,1.35,1.06,3.76,3.76,0,0,0,1.7.39,4.17,4.17,0,0,0,1-.12,3.9,3.9,0,0,0,1-.38,4.31,4.31,0,0,0,.88-.66,3.45,3.45,0,0,0,.68-1l.93.49a3.78,3.78,0,0,1-.77,1.13,5.54,5.54,0,0,1-1.11.83,5.86,5.86,0,0,1-1.3.51,5.2,5.2,0,0,1-1.34.18,4.58,4.58,0,0,1-2.15-.52,5.66,5.66,0,0,1-1.69-1.34,6.41,6.41,0,0,1-1.1-1.88A6.09,6.09,0,0,1,175.74,68.45Z"/><path d="M202.45,62.83v11.4h-1.11V68.9h-6.76v5.33h-1.12V62.83h1.12V67.9h6.76V62.83Z"/><path d="M215.85,74.31a4.78,4.78,0,0,1-2.18-.49,5.58,5.58,0,0,1-1.7-1.3,6,6,0,0,1-1.09-1.86,6.21,6.21,0,0,1-.38-2.13,5.83,5.83,0,0,1,.41-2.19A6,6,0,0,1,212,64.5a5.48,5.48,0,0,1,1.7-1.28,5,5,0,0,1,4.3,0,5.35,5.35,0,0,1,1.68,1.33,6,6,0,0,1,1.09,1.85,6,6,0,0,1,.38,2.11,5.83,5.83,0,0,1-.41,2.19,6,6,0,0,1-1.12,1.84,5.49,5.49,0,0,1-1.7,1.27A4.83,4.83,0,0,1,215.85,74.31Zm-4.23-5.78a5.15,5.15,0,0,0,.31,1.79,4.84,4.84,0,0,0,.86,1.52,4.17,4.17,0,0,0,1.34,1.06,3.61,3.61,0,0,0,1.72.4,3.68,3.68,0,0,0,1.75-.42,4.39,4.39,0,0,0,1.33-1.09,5.26,5.26,0,0,0,.83-5.05,4.77,4.77,0,0,0-.88-1.52,4.24,4.24,0,0,0-1.33-1,3.61,3.61,0,0,0-1.7-.4,3.8,3.8,0,0,0-1.76.41,4.39,4.39,0,0,0-1.33,1.09,5.27,5.27,0,0,0-1.14,3.26Z"/><path d="M233.85,74.31a4.81,4.81,0,0,1-2.18-.49,5.42,5.42,0,0,1-1.69-1.3,5.77,5.77,0,0,1-1.09-1.86,6,6,0,0,1,0-4.32A6.16,6.16,0,0,1,230,64.5a5.48,5.48,0,0,1,1.7-1.28,4.81,4.81,0,0,1,2.13-.47,4.65,4.65,0,0,1,2.17.5,5.51,5.51,0,0,1,1.69,1.33,6,6,0,0,1-.07,8A5.45,5.45,0,0,1,236,73.84,4.87,4.87,0,0,1,233.85,74.31Zm-4.22-5.78a5.38,5.38,0,0,0,.3,1.79,4.67,4.67,0,0,0,.87,1.52,4.13,4.13,0,0,0,1.33,1.06,3.88,3.88,0,0,0,3.47,0,4.28,4.28,0,0,0,1.33-1.09,5,5,0,0,0,.85-1.53,5.37,5.37,0,0,0,.29-1.73,5.15,5.15,0,0,0-.31-1.79,4.94,4.94,0,0,0-.87-1.52,4.28,4.28,0,0,0-1.34-1,3.58,3.58,0,0,0-1.7-.4,3.76,3.76,0,0,0-1.75.41,4.28,4.28,0,0,0-1.33,1.09,5,5,0,0,0-.85,1.52A5.21,5.21,0,0,0,229.63,68.53Z"/><path d="M247.26,74.23V62.83h1.12v10.4H255v1Z"/><path d="M272.15,74.23V62.83H276a5.84,5.84,0,0,1,2.38.45,4.72,4.72,0,0,1,1.7,1.22,5,5,0,0,1,1,1.8,7,7,0,0,1,.35,2.21,6.79,6.79,0,0,1-.39,2.36,5,5,0,0,1-1.1,1.79,4.8,4.8,0,0,1-1.72,1.16,6,6,0,0,1-2.25.41Zm8.21-5.72a5.76,5.76,0,0,0-.29-1.89,4.23,4.23,0,0,0-.84-1.48,3.72,3.72,0,0,0-1.36-1,4.61,4.61,0,0,0-1.84-.35h-2.75v9.41H276a4.59,4.59,0,0,0,1.87-.36,3.76,3.76,0,0,0,1.35-1,4.3,4.3,0,0,0,.83-1.5A5.87,5.87,0,0,0,280.36,68.51Z"/><path d="M289.58,74.23V62.83h1.13v11.4Z"/><path d="M306.17,65a3.47,3.47,0,0,0-1.28-.88,4.63,4.63,0,0,0-1.83-.34,3.43,3.43,0,0,0-2.2.57,1.92,1.92,0,0,0-.7,1.55,1.75,1.75,0,0,0,.19.85,1.55,1.55,0,0,0,.57.57,4.22,4.22,0,0,0,1,.41c.4.12.87.24,1.42.36a16.32,16.32,0,0,1,1.65.43,4.77,4.77,0,0,1,1.24.6A2.65,2.65,0,0,1,307,70a2.73,2.73,0,0,1,.27,1.28,2.83,2.83,0,0,1-.31,1.37,2.69,2.69,0,0,1-.85,1,3.59,3.59,0,0,1-1.3.57,7.05,7.05,0,0,1-1.65.19,6.78,6.78,0,0,1-4.58-1.66l.56-.91a5.74,5.74,0,0,0,.73.61,5.33,5.33,0,0,0,.95.5,5.62,5.62,0,0,0,1.12.34,6.24,6.24,0,0,0,1.25.12,3.91,3.91,0,0,0,2.13-.49,1.64,1.64,0,0,0,.76-1.49,1.75,1.75,0,0,0-.21-.89,1.88,1.88,0,0,0-.66-.62,4.46,4.46,0,0,0-1.07-.46q-.64-.19-1.5-.39c-.6-.14-1.12-.28-1.57-.43a4.33,4.33,0,0,1-1.14-.56,2.33,2.33,0,0,1-.7-.81A2.74,2.74,0,0,1,299,66a3.16,3.16,0,0,1,.3-1.4,2.72,2.72,0,0,1,.84-1,4.14,4.14,0,0,1,1.28-.63,6,6,0,0,1,1.64-.21,5.31,5.31,0,0,1,3.65,1.31Z"/><path d="M323.2,63.82h-4.07V74.23H318V63.82H314v-1h9.25Z"/><path d="M330.84,74.23V62.83h4.82a3,3,0,0,1,1.36.31,3.72,3.72,0,0,1,1.07.82,3.64,3.64,0,0,1,.69,1.15,3.49,3.49,0,0,1,.25,1.3,3.73,3.73,0,0,1-.7,2.22,2.89,2.89,0,0,1-.79.77,2.73,2.73,0,0,1-1,.43l2.79,4.4H338L335.34,70H332v4.21ZM332,69h3.72a2,2,0,0,0,.91-.22,2.21,2.21,0,0,0,.7-.59,2.88,2.88,0,0,0,.45-.83,2.92,2.92,0,0,0,.16-1,2.6,2.6,0,0,0-.19-1,2.85,2.85,0,0,0-.49-.83,2.54,2.54,0,0,0-.74-.56,2,2,0,0,0-.9-.21H332Z"/><path d="M347.26,74.23V62.83h1.12v11.4Z"/><path d="M356.43,68.45a6.11,6.11,0,0,1,.36-2,5.59,5.59,0,0,1,1-1.82,5.41,5.41,0,0,1,1.7-1.31,5.05,5.05,0,0,1,2.3-.51,4.75,4.75,0,0,1,2.61.69,4.27,4.27,0,0,1,1.6,1.8l-.88.55a3.5,3.5,0,0,0-1.52-1.58,3.46,3.46,0,0,0-.93-.34,4.38,4.38,0,0,0-.94-.11,3.79,3.79,0,0,0-1.82.42,4.13,4.13,0,0,0-1.32,1.09,5,5,0,0,0-.82,1.52,5.56,5.56,0,0,0-.27,1.71,5.1,5.1,0,0,0,.33,1.82,5.19,5.19,0,0,0,.9,1.53,4.21,4.21,0,0,0,1.35,1.06,3.72,3.72,0,0,0,1.69.39,4.25,4.25,0,0,0,1-.12,3.9,3.9,0,0,0,1-.38,4.31,4.31,0,0,0,.88-.66,3.42,3.42,0,0,0,.67-1l.93.49a3.6,3.6,0,0,1-.77,1.13,5,5,0,0,1-1.11.83,5.6,5.6,0,0,1-1.29.51,5.2,5.2,0,0,1-1.34.18,4.58,4.58,0,0,1-2.15-.52,5.54,5.54,0,0,1-1.69-1.34,6.2,6.2,0,0,1-1.1-1.88A6.09,6.09,0,0,1,356.43,68.45Z"/><path d="M382.12,63.82h-4.06V74.23h-1.12V63.82h-4.07v-1h9.25Z"/><path class="cls-2" d="M98.5,49.39A13.33,13.33,0,0,1,92,48c-.73-.84-1.22-3.57-1.22-6.15a.93.93,0,0,1,1.44-.11c.77,2.47,3.32,6,6.55,6a3.78,3.78,0,0,0,4.11-3.84c0-3.07-2.89-4.89-5.17-6C95,36.42,92,34.14,92,30.39c0-4.29,3.31-7.25,8.83-7.25a15.4,15.4,0,0,1,4.34.61,8.23,8.23,0,0,0,1.29.3,18.62,18.62,0,0,1,.69,5.43c-.2.45-1.15.49-1.49.11-.65-1.93-2.28-4.7-5-4.7-2.51,0-3.88,1.63-3.88,3.52s1.56,3.34,3.46,4.33l2.51,1.33c2.36,1.25,5.37,3.45,5.37,7.62,0,4.67-3.85,7.7-9.59,7.7"/><path class="cls-2" d="M118.15,38.61c.7,0,.85-.09.6-.88L118,35.27c-.42-1.3-1-2.94-1.25-3.58-.24.7-.85,2.34-1.31,3.74l-.76,2.27c-.27.82-.12.91.64.91Zm-3.48,1.61c-.73,0-.82,0-1,.61l-1.19,3.52a3.54,3.54,0,0,0-.21,1.09c0,.18.39.36,1.25.51l.91.16c.18.21.24.91-.06,1.06-1.07-.06-2.16-.06-3.44-.09-1,0-1.74.09-3.14.09-.33-.18-.3-.82-.09-1.06l.82-.1a2.1,2.1,0,0,0,1.86-1.51c.52-1.22,1.1-2.67,1.92-4.86l2.77-7.4c.7-1.91,1.22-3,1.13-3.85a6.25,6.25,0,0,0,2.65-1.82c.39,0,.57.15.7.6.24.88.6,2,1.37,4.16l4.14,11.89c.64,1.82.91,2.52,2,2.7l1.16.19c.18.15.24.88,0,1.06-1.47-.06-3.11-.09-4.69-.09s-2.72,0-4.12.09a.69.69,0,0,1-.06-1.06l1-.16c.7-.12.82-.33.82-.51a12.33,12.33,0,0,0-.58-2.06l-.82-2.61c-.15-.49-.4-.55-1.46-.55Z"/><path class="cls-2" d="M134.16,35.82c0,1.06.09,1.15,1.89,1.15a2.89,2.89,0,0,0,2.31-.85,4.36,4.36,0,0,0,1.1-3.27c0-2.73-1.61-4.49-4-4.49-1.25,0-1.31.09-1.31,1.54ZM130,32c0-3-.06-3.37-1.34-3.55l-.82-.13a.68.68,0,0,1,.06-1.06c2.28-.15,4.66-.27,7.55-.27a12.85,12.85,0,0,1,6,1.09,5,5,0,0,1,2.68,4.49c0,2.7-1.83,3.86-3.23,4.55-.3.16-.3.34-.15.67,2,4.07,3.26,6.34,4.72,7.59a3.77,3.77,0,0,0,2,.85.58.58,0,0,1,.12.79,7.43,7.43,0,0,1-2.4.27,6.22,6.22,0,0,1-5.91-3.19,37.07,37.07,0,0,1-2.38-4.7,1.54,1.54,0,0,0-1.61-1.06c-1.07,0-1.13.06-1.13.67v3.73c0,2.79.18,3,1.55,3.24l.83.16a1,1,0,0,1,0,1.06c-1.62-.06-3-.09-4.48-.09s-2.86,0-4.45.09a.87.87,0,0,1,0-1.06l.83-.16c1.37-.24,1.55-.45,1.55-3.24Z"/><path class="cls-2" d="M155.84,38.61c.7,0,.85-.09.61-.88l-.79-2.46c-.43-1.3-1-2.94-1.25-3.58-.24.7-.85,2.34-1.31,3.74l-.76,2.27c-.28.82-.12.91.64.91Zm-3.47,1.61c-.73,0-.82,0-1,.61l-1.19,3.52a3.36,3.36,0,0,0-.22,1.09c0,.18.4.36,1.25.51l.92.16c.18.21.24.91-.07,1.06-1.06-.06-2.16-.06-3.44-.09-1,0-1.73.09-3.13.09-.34-.18-.31-.82-.09-1.06l.82-.1a2.1,2.1,0,0,0,1.86-1.51c.51-1.22,1.09-2.67,1.91-4.86l2.78-7.4c.7-1.91,1.21-3,1.12-3.85a6.18,6.18,0,0,0,2.65-1.82c.4,0,.58.15.7.6.24.88.61,2,1.37,4.16l4.14,11.89c.64,1.82.92,2.52,2,2.7l1.16.19c.18.15.24.88,0,1.06-1.46-.06-3.1-.09-4.69-.09s-2.71,0-4.11.09a.69.69,0,0,1-.06-1.06l1-.16c.7-.12.83-.33.83-.51a13.53,13.53,0,0,0-.58-2.06l-.82-2.61c-.16-.49-.4-.55-1.47-.55Z"/><path class="cls-2" d="M170.76,29.33c0-.73,0-.88-.73-.88h-1.89c-2.22,0-2.86,1.21-3.77,3.43a.86.86,0,0,1-1.13-.28,36.05,36.05,0,0,0,1-5.16.77.77,0,0,1,.43-.15.74.74,0,0,1,.43.12c.15.52.24.64,2.56.64H179c2,0,2.47,0,2.74-.67a.82.82,0,0,1,.4-.09.67.67,0,0,1,.46.21,21.22,21.22,0,0,0-.46,5.22c-.15.28-1,.34-1.13.09-.51-1.94-.94-3.36-3.22-3.36h-1.83c-.73,0-.82.09-.82.88V42.71c0,2.82.18,3.06,1.55,3.24l1.22.16a1,1,0,0,1,0,1.06c-2-.06-3.51-.09-4.88-.09s-3,0-5.17.09a.84.84,0,0,1,0-1.06l1.37-.16c1.37-.15,1.55-.42,1.55-3.24Z"/><path class="cls-2" d="M193.39,28c-3.75,0-5.76,3.49-5.76,8.56,0,3.7,1.31,9.65,6.27,9.65,4,0,5.55-3.89,5.55-8.8,0-5.19-2.29-9.41-6.06-9.41m10.93,9c0,6.62-4.45,10.59-11,10.59-6.12,0-10.56-4-10.56-10.34a10.47,10.47,0,0,1,10.87-10.66c6.33,0,10.69,4.25,10.69,10.41"/><path class="cls-2" d="M225.42,43.65c0,1.27.06,1.88.64,2,.12.12.09.64-.09.73a13.69,13.69,0,0,0-2.13.45,23.33,23.33,0,0,1-5.39.73,15.18,15.18,0,0,1-6-1.06,9.55,9.55,0,0,1-6-9.16,10,10,0,0,1,5.36-9.17,14.93,14.93,0,0,1,7.12-1.6c3.38,0,5.06.72,6,.72.09.91.12,3,.43,4.89-.12.33-.95.36-1.16.06-1-2.85-2.89-4.28-5.72-4.28-4.85,0-7.19,4-7.19,8.8,0,4.34,1.49,6.92,3.47,8.25A7.49,7.49,0,0,0,219,46.17c1.74,0,2.1-.34,2.1-2.31V42c0-1.64-.18-1.82-1.64-2l-1.34-.19a.69.69,0,0,1,0-1.06c2.16.06,3.66.09,5.15.09s3,0,4-.09a.87.87,0,0,1,0,1.06l-.71.12c-.91.16-1.09.46-1.09,2.1Z"/><path class="cls-2" d="M237.6,38.61c.7,0,.85-.09.61-.88l-.8-2.46c-.42-1.3-1-2.94-1.24-3.58-.25.7-.86,2.34-1.31,3.74l-.77,2.27c-.27.82-.12.91.64.91Zm-3.47,1.61c-.74,0-.83,0-1,.61l-1.19,3.52a3.54,3.54,0,0,0-.21,1.09c0,.18.4.36,1.25.51l.91.16c.18.21.25.91-.06,1.06-1.06-.06-2.16-.06-3.44-.09-1,0-1.74.09-3.14.09-.33-.18-.3-.82-.09-1.06L228,46a2.1,2.1,0,0,0,1.86-1.51c.52-1.22,1.1-2.67,1.92-4.86l2.77-7.4c.7-1.91,1.22-3,1.13-3.85a6.18,6.18,0,0,0,2.65-1.82c.39,0,.58.15.7.6.24.88.61,2,1.37,4.16l4.14,11.89c.64,1.82.91,2.52,2,2.7l1.16.19c.18.15.24.88,0,1.06-1.46-.06-3.11-.09-4.69-.09s-2.71,0-4.11.09a.69.69,0,0,1-.07-1.06l1-.16c.7-.12.82-.33.82-.51a12.33,12.33,0,0,0-.58-2.06l-.82-2.61c-.15-.49-.4-.55-1.46-.55Z"/><path class="cls-2" d="M265.61,49.39A13.33,13.33,0,0,1,259.14,48c-.73-.84-1.22-3.57-1.22-6.15a.94.94,0,0,1,1.45-.11c.76,2.47,3.31,6,6.54,6A3.78,3.78,0,0,0,270,43.81c0-3.07-2.89-4.89-5.17-6-2.74-1.36-5.75-3.64-5.75-7.39,0-4.29,3.31-7.25,8.83-7.25a15.35,15.35,0,0,1,4.34.61,8.23,8.23,0,0,0,1.29.3,18.27,18.27,0,0,1,.69,5.43c-.19.45-1.15.49-1.49.11-.64-1.93-2.28-4.7-5-4.7-2.51,0-3.88,1.63-3.88,3.52s1.56,3.34,3.46,4.33l2.51,1.33c2.36,1.25,5.37,3.45,5.37,7.62,0,4.67-3.85,7.7-9.59,7.7"/><path class="cls-2" d="M279,32c0-3.07-.06-3.43-1.34-3.58l-.94-.13a.69.69,0,0,1,.06-1c2-.15,4.39-.27,7-.27a15.52,15.52,0,0,1,5.57.79A5.39,5.39,0,0,1,293.11,33c0,5-5,5.7-6.64,5.7-.36,0-.64,0-1,0a.59.59,0,0,1-.09-.82c2.53-.79,3-2.58,3-4.82s-1.15-4.67-3.89-4.67c-1.13,0-1.19.33-1.19,1.54V42.71c0,2.82.18,3.06,1.55,3.27l1,.16a.66.66,0,0,1,0,1c-1.71-.06-3.2-.09-4.66-.09s-2.93,0-4.57.09c-.34-.19-.4-.88-.06-1l.85-.16c1.37-.24,1.55-.45,1.55-3.27Z"/><path class="cls-2" d="M300.57,35.82c0,1.06.09,1.15,1.89,1.15a2.89,2.89,0,0,0,2.31-.85,4.36,4.36,0,0,0,1.1-3.27c0-2.73-1.61-4.49-4-4.49-1.25,0-1.31.09-1.31,1.54ZM296.4,32c0-3-.06-3.37-1.34-3.55l-.82-.13a.68.68,0,0,1,.06-1.06c2.28-.15,4.66-.27,7.55-.27a12.85,12.85,0,0,1,6,1.09,5,5,0,0,1,2.68,4.49c0,2.7-1.83,3.86-3.23,4.55-.3.16-.3.34-.15.67,2,4.07,3.26,6.34,4.72,7.59a3.77,3.77,0,0,0,2,.85A.57.57,0,0,1,314,47a7.12,7.12,0,0,1-2.4.28,6.22,6.22,0,0,1-5.91-3.19,36.42,36.42,0,0,1-2.38-4.7,1.54,1.54,0,0,0-1.61-1.06c-1.07,0-1.13.06-1.13.67v3.73c0,2.79.18,3,1.55,3.24l.83.15a1,1,0,0,1,0,1.07c-1.62-.06-3-.09-4.48-.09s-2.86,0-4.45.09a.88.88,0,0,1,0-1.07l.83-.15c1.37-.24,1.55-.45,1.55-3.24Z"/><path class="cls-2" d="M319.75,42.65c0,2.85.19,3.06,1.59,3.3l.85.16a.86.86,0,0,1,0,1.06c-1.64-.06-3.14-.09-4.57-.09s-3,0-4.63.09a.87.87,0,0,1,0-1.06l.86-.16c1.4-.24,1.58-.45,1.58-3.3V31.48c0-2.85-.18-3.06-1.58-3.31L313,28A.87.87,0,0,1,313,27c1.65.06,3.17.09,4.63.09s3,0,4.6-.09a.84.84,0,0,1,0,1.06l-.85.15c-1.4.25-1.59.46-1.59,3.31Z"/><path class="cls-2" d="M343.08,41.92c0,2,0,3.88.06,4.88a2.39,2.39,0,0,1-1.8.7s-1-1.55-2.46-3.31l-7-8.67a43.2,43.2,0,0,0-3.32-3.89,5.44,5.44,0,0,0-.15,1.94v5.89a20.87,20.87,0,0,0,.46,5.55c.27.64,1,.85,1.76,1l.86.13a1,1,0,0,1,0,1.06c-1.65-.06-2.87-.09-4.08-.09s-2.26,0-3.41.09a.93.93,0,0,1,0-1.06l.51-.1c.83-.15,1.43-.36,1.68-1a21.82,21.82,0,0,0,.42-5.55V31.75a7,7,0,0,0-.21-2.58c-.24-.51-.67-.87-1.73-1l-.86-.12c-.21-.24-.18-1,.13-1.06,1.43.06,3,.09,4.2.09,1,0,1.92,0,2.56-.09.3,1.36,2.28,3.67,5,6.92l2.56,3c1.34,1.58,2.22,2.64,2.92,3.34a4.41,4.41,0,0,0,.12-1.37V34.67a21.53,21.53,0,0,0-.45-5.56c-.28-.63-.95-.85-1.77-1l-.82-.12a1,1,0,0,1,0-1.06c1.64.06,2.83.09,4.08.09s2.22,0,3.41-.09a1,1,0,0,1,0,1.06l-.55.09a1.87,1.87,0,0,0-1.64,1,21,21,0,0,0-.46,5.56Z"/><path class="cls-2" d="M365,43.65c0,1.27.06,1.88.64,2,.12.12.09.64-.09.73a13.69,13.69,0,0,0-2.13.45,23.25,23.25,0,0,1-5.39.73,15.21,15.21,0,0,1-6-1.06,9.56,9.56,0,0,1-6-9.16,10.06,10.06,0,0,1,5.36-9.17,15,15,0,0,1,7.13-1.6c3.38,0,5.05.72,6,.72.09.91.12,3,.42,4.89-.12.33-.94.36-1.16.06-1-2.85-2.89-4.28-5.72-4.28-4.84,0-7.19,4-7.19,8.8,0,4.34,1.5,6.92,3.47,8.25a7.52,7.52,0,0,0,4.18,1.16c1.73,0,2.1-.34,2.1-2.31V42c0-1.64-.18-1.82-1.65-2l-1.34-.19a.69.69,0,0,1,0-1.06c2.17.06,3.66.09,5.15.09s3,0,4-.09a.87.87,0,0,1,0,1.06l-.7.12c-.91.16-1.1.46-1.1,2.1Z"/><path class="cls-2" d="M374,47.56a10.64,10.64,0,0,1-5.17-1.15c-.58-.67-1-2.85-1-4.92A.76.76,0,0,1,369,41.4c.61,2,2.65,4.77,5.24,4.77a3,3,0,0,0,3.29-3.07c0-2.46-2.32-3.91-4.14-4.82-2.2-1.1-4.6-2.91-4.6-5.92,0-3.43,2.65-5.79,7.06-5.79a12.45,12.45,0,0,1,3.47.48,7.35,7.35,0,0,0,1,.24,14.88,14.88,0,0,1,.55,4.34c-.16.37-.92.4-1.19.09-.52-1.54-1.83-3.76-4-3.76a2.83,2.83,0,0,0-3.11,2.82c0,1.4,1.25,2.67,2.77,3.46l2,1.06c1.88,1,4.29,2.77,4.29,6.1,0,3.74-3.08,6.16-7.68,6.16"/><polygon class="cls-3" points="0 108.8 66.05 57.45 51.51 60.54 84.82 30.11 72.23 30.11 108.57 0 79.75 0 54.4 31.02 64.94 31.02 33.95 61.46 44.76 61.46 0 108.8"/><polygon class="cls-2" points="43.93 55.08 35.77 46.93 35.77 32.06 43.93 23.91 67.81 23.91 75.97 32.06 75.97 39.16 65.74 39.16 65.74 34.87 61.88 31.02 49.79 31.02 45.94 34.87 45.94 44.2 49.79 47.97 67.81 47.97 75.97 56.11 75.97 70.69 67.81 78.84 43.93 78.84 35.77 70.69 35.77 63.88 45.94 63.88 45.94 67.96 49.79 71.73 61.88 71.73 65.74 67.96 65.74 58.93 61.88 55.08 43.93 55.08"/><path class="cls-2" d="M63,66.77,60.77,69H51l-2.23-2.22V61.15H33V72l9.64,9.62H69.15L78.72,72V54.78l-9.57-9.55H51L48.75,43v-7L51,33.83h9.79L63,36.05V42H78.72V30.72l-9.57-9.55H42.6L33,30.72V48.34l9.64,9.55H60.77L63,60.11ZM42.23,58.48l-9.87-9.84V30.43l9.87-9.85H69.45l9.86,9.85V42.57h-17V36.42l-1.93-2h-9l-2,2v6.22l2,2h18.1l9.86,9.84V72.4l-9.86,9.84H42.23L32.36,72.4V60.55h17V66.4l2,1.93h9l1.93-1.93V60.48l-1.93-2Z"/></svg>